<svg width="512" height="512" viewBox="0 0 512 512" fill="none" xmlns="http://www.w3.org/2000/svg" role="img" aria-label="Logo Órbita">
  <path fill-rule="evenodd" clip-rule="evenodd" d="M67 482L181 120C198 66 220 35 256 18C292 35 314 66 331 120L445 482H365L279 171C273 150 266 141 256 141C246 141 239 150 233 171L147 482H67ZM167 482L232 239C238 217 245 206 256 206C267 206 274 217 280 239L345 482H293L266 317C262 303 259 297 256 297C253 297 250 303 246 317L219 482H167Z" fill="#ECECEF"/>
  <circle cx="256" cy="246" r="33" fill="#ECECEF" />
</svg>
