<svg xmlns="http://www.w3.org/2000/svg" width="960" height="640" viewBox="0 0 960 640" fill="none">
  <rect width="960" height="640" rx="28" fill="#121629"/>
  <rect x="40" y="44" width="880" height="92" rx="20" fill="#1B2140" stroke="rgba(255,255,255,0.12)"/>
  <circle cx="92" cy="90" r="16" fill="#ffffff" fill-opacity="0.88"/>
  <rect x="126" y="74" width="260" height="14" rx="7" fill="rgba(255,255,255,0.7)"/>
  <rect x="126" y="98" width="190" height="10" rx="5" fill="rgba(255,255,255,0.35)"/>
  <rect x="58" y="186" width="548" height="82" rx="18" fill="#ffffff" fill-opacity="0.08"/>
  <rect x="76" y="208" width="430" height="12" rx="6" fill="rgba(255,255,255,0.82)"/>
  <rect x="76" y="230" width="332" height="10" rx="5" fill="rgba(255,255,255,0.5)"/>
  <rect x="354" y="292" width="548" height="82" rx="18" fill="#E33B46" fill-opacity="0.32"/>
  <rect x="380" y="314" width="422" height="12" rx="6" fill="rgba(255,255,255,0.92)"/>
  <rect x="380" y="336" width="312" height="10" rx="5" fill="rgba(255,255,255,0.7)"/>
  <rect x="58" y="398" width="548" height="82" rx="18" fill="#ffffff" fill-opacity="0.08"/>
  <rect x="76" y="420" width="372" height="12" rx="6" fill="rgba(255,255,255,0.82)"/>
  <rect x="76" y="442" width="274" height="10" rx="5" fill="rgba(255,255,255,0.5)"/>
  <rect x="58" y="514" width="844" height="76" rx="18" fill="#171C35" stroke="rgba(255,255,255,0.1)"/>
  <rect x="84" y="545" width="300" height="12" rx="6" fill="rgba(255,255,255,0.8)"/>
  <rect x="726" y="536" width="150" height="30" rx="15" fill="#E33B46"/>
</svg>
