<svg width="1600" height="900" viewBox="0 0 1600 900" fill="none" xmlns="http://www.w3.org/2000/svg" role="img" aria-label="Avatares IA">
  <defs>
    <linearGradient id="bg" x1="0" y1="0" x2="1600" y2="900" gradientUnits="userSpaceOnUse">
      <stop offset="0" stop-color="#07080D"/>
      <stop offset="0.55" stop-color="#0D1118"/>
      <stop offset="1" stop-color="#111827"/>
    </linearGradient>
    <radialGradient id="orb" cx="0" cy="0" r="1" gradientUnits="userSpaceOnUse" gradientTransform="translate(1180 180) rotate(155) scale(680 420)">
      <stop stop-color="#A5F3FC" stop-opacity="0.22"/>
      <stop offset="1" stop-color="#A5F3FC" stop-opacity="0"/>
    </radialGradient>
    <linearGradient id="line" x1="260" y1="140" x2="1400" y2="760" gradientUnits="userSpaceOnUse">
      <stop stop-color="#E5E7EB" stop-opacity="0.8"/>
      <stop offset="1" stop-color="#E5E7EB" stop-opacity="0.25"/>
    </linearGradient>
    <linearGradient id="panel" x1="120" y1="120" x2="1320" y2="780" gradientUnits="userSpaceOnUse">
      <stop stop-color="#121826" stop-opacity="0.92"/>
      <stop offset="1" stop-color="#0B101A" stop-opacity="0.94"/>
    </linearGradient>
  </defs>

  <rect width="1600" height="900" rx="40" fill="url(#bg)"/>
  <rect width="1600" height="900" rx="40" fill="url(#orb)"/>

  <g opacity="0.58">
    <circle cx="212" cy="162" r="2" fill="#CBD5E1"/>
    <circle cx="308" cy="236" r="1.6" fill="#9CA3AF"/>
    <circle cx="502" cy="118" r="1.8" fill="#D1D5DB"/>
    <circle cx="1352" cy="136" r="2" fill="#E5E7EB"/>
    <circle cx="1420" cy="260" r="1.5" fill="#A3A3A3"/>
    <circle cx="1248" cy="672" r="1.7" fill="#D4D4D8"/>
    <circle cx="210" cy="708" r="1.7" fill="#A1A1AA"/>
    <circle cx="366" cy="760" r="1.8" fill="#FB923C"/>
  </g>

  <g opacity="0.5" stroke="url(#line)">
    <path d="M120 640C302 518 424 512 592 620C758 726 992 742 1300 530" stroke-width="1.6"/>
    <path d="M220 742C398 620 522 612 694 716C878 828 1080 814 1380 612" stroke-width="1.2"/>
    <ellipse cx="1240" cy="238" rx="230" ry="92" stroke-width="1.4"/>
    <ellipse cx="1240" cy="238" rx="300" ry="120" stroke-width="1" opacity="0.65"/>
  </g>

  <rect x="120" y="120" width="820" height="430" rx="30" fill="url(#panel)" stroke="#94A3B8" stroke-opacity="0.2"/>
  <rect x="160" y="174" width="180" height="20" rx="10" fill="#E5E7EB" fill-opacity="0.75"/>
  <rect x="160" y="224" width="560" height="12" rx="6" fill="#CBD5E1" fill-opacity="0.26"/>
  <rect x="160" y="250" width="470" height="12" rx="6" fill="#CBD5E1" fill-opacity="0.2"/>
  <rect x="160" y="276" width="390" height="12" rx="6" fill="#CBD5E1" fill-opacity="0.15"/>

  <rect x="160" y="338" width="230" height="84" rx="18" fill="#111827" stroke="#E2E8F0" stroke-opacity="0.12"/>
  <rect x="420" y="338" width="230" height="84" rx="18" fill="#111827" stroke="#E2E8F0" stroke-opacity="0.12"/>
  <rect x="680" y="338" width="230" height="84" rx="18" fill="#111827" stroke="#E2E8F0" stroke-opacity="0.12"/>

  <circle cx="164" cy="104" r="6" fill="#FB923C"/>
  <circle cx="160" cy="104" r="2" fill="#0B1120"/>

  <text x="120" y="638" fill="#F8FAFC" font-family="Inter, system-ui, sans-serif" font-weight="700" font-size="56" letter-spacing="0.2">Avatares IA</text>
  <text x="120" y="692" fill="#CBD5E1" font-family="Inter, system-ui, sans-serif" font-weight="500" font-size="30">Produccion constante con guion comercial</text>
</svg>
