<svg width="624" height="172" viewBox="0 0 624 172" fill="none" xmlns="http://www.w3.org/2000/svg">
  <defs>
    <linearGradient id="orbitaGlow" x1="50" y1="8" x2="596" y2="164" gradientUnits="userSpaceOnUse">
      <stop stop-color="#FFFFFF" stop-opacity="0.98" />
      <stop offset="1" stop-color="#D6E8FF" stop-opacity="0.92" />
    </linearGradient>
    <filter id="soft" x="-20%" y="-40%" width="140%" height="180%">
      <feGaussianBlur stdDeviation="3.4" result="blur" />
      <feMerge>
        <feMergeNode in="blur" />
        <feMergeNode in="SourceGraphic" />
      </feMerge>
    </filter>
  </defs>

  <g filter="url(#soft)">
    <ellipse cx="312" cy="86" rx="292" ry="56" transform="rotate(-7 312 86)" stroke="url(#orbitaGlow)" stroke-width="3.2" />
    <circle cx="542" cy="46" r="8.5" fill="#FFFFFF" />
  </g>

  <g fill="#FFFFFF">
    <path d="M80.3 122.4C50.4 122.4 30 103.6 30 77.5C30 51.4 50.4 32.6 80.3 32.6C110.3 32.6 130.5 51.4 130.5 77.5C130.5 103.6 110.3 122.4 80.3 122.4ZM80.3 103.4C98.9 103.4 112.2 92.2 112.2 77.5C112.2 62.8 98.9 51.6 80.3 51.6C61.7 51.6 48.2 62.8 48.2 77.5C48.2 92.2 61.7 103.4 80.3 103.4Z" />
    <path d="M148.1 120.6V34.3H186.3C210.5 34.3 225.1 47.5 225.1 68.4C225.1 82.3 218.3 92.7 206.6 98L227.7 120.6H205.4L187.1 100.9H166.8V120.6H148.1ZM166.8 83.9H185C198.3 83.9 206 78.5 206 68.7C206 58.7 198.3 53.4 185 53.4H166.8V83.9Z" />
    <path d="M259.2 120.6V53.9H231.5V34.3H305.5V53.9H277.8V120.6H259.2Z" />
    <path d="M319.4 120.6V34.3H338V120.6H319.4Z" />
    <path d="M375.9 120.6V53.9H348.2V34.3H422.2V53.9H394.5V120.6H375.9Z" />
    <path d="M432.5 120.6L474.8 34.3H493.1L535.5 120.6H515.5L507.7 103.7H460.2L452.5 120.6H432.5ZM467.8 87.2H500.2L484 51.9L467.8 87.2Z" />
  </g>
</svg>
